HIERARCHY
ROOT Hips
{
	OFFSET 0.000000 0.000000 0.000000
	CHANNELS 6 Xposition Yposition Zposition Xrotation Yrotation Zrotation
	JOINT Chest
	{
		OFFSET 0.000000 9.581000 -0.001100
		CHANNELS 3 Xrotation Yrotation Zrotation
		JOINT Chest2
		{
			OFFSET 0.000000 9.561100 0.002200
			CHANNELS 3 Xrotation Yrotation Zrotation
			JOINT Chest3
			{
				OFFSET 0.000000 9.521100 0.000000
				CHANNELS 3 Xrotation Yrotation Zrotation
				JOINT Chest4
				{
					OFFSET 0.000000 9.511400 0.000000
					CHANNELS 3 Xrotation Yrotation Zrotation
					JOINT Neck
					{
						OFFSET 0.000000 14.375100 0.000000
						CHANNELS 3 Xrotation Yrotation Zrotation
						JOINT Head
						{
							OFFSET 0.000000 8.901200 0.004600
							CHANNELS 3 Xrotation Yrotation Zrotation
							End Site
							{
								OFFSET 0.000000 0.000000 0.000000
							}
						}
					}
					JOINT RightCollar
					{
						OFFSET -2.920100 9.518800 0.000000
						CHANNELS 3 Xrotation Yrotation Zrotation
						JOINT RightShoulder
						{
							OFFSET -13.664500 0.000000 0.000000
							CHANNELS 3 Xrotation Yrotation Zrotation
							JOINT RightElbow
							{
								OFFSET 0.000000 -29.999201 0.000000
								CHANNELS 3 Xrotation Yrotation Zrotation
								JOINT RightWrist
								{
									OFFSET 0.000000 -24.253599 0.000000
									CHANNELS 3 Xrotation Yrotation Zrotation
									End Site
									{
										OFFSET 0.000000 0.000000 0.000000
									}
								}
							}
						}
					}
					JOINT LeftCollar
					{
						OFFSET 2.920100 9.518800 0.000000
						CHANNELS 3 Xrotation Yrotation Zrotation
						JOINT LeftShoulder
						{
							OFFSET 13.664500 0.000000 0.000000
							CHANNELS 3 Xrotation Yrotation Zrotation
							JOINT LeftElbow
							{
								OFFSET 0.000000 -29.999201 0.000000
								CHANNELS 3 Xrotation Yrotation Zrotation
								JOINT LeftWrist
								{
									OFFSET 0.000000 -24.253599 0.000000
									CHANNELS 3 Xrotation Yrotation Zrotation
									End Site
									{
										OFFSET 0.000000 0.000000 0.000000
									}
								}
							}
						}
					}
				}
			}
		}
	}
	JOINT RightHip
	{
		OFFSET -7.797300 0.005300 0.000500
		CHANNELS 3 Xrotation Yrotation Zrotation
		JOINT RightKnee
		{
			OFFSET 0.000000 -40.663399 -0.000500
			CHANNELS 3 Xrotation Yrotation Zrotation
			JOINT RightAnkle
			{
				OFFSET 0.000000 -39.523701 -0.000900
				CHANNELS 3 Xrotation Yrotation Zrotation
				JOINT RightToe
				{
					OFFSET 0.000000 -6.418000 14.485300
					CHANNELS 3 Xrotation Yrotation Zrotation
					End Site
					{
						OFFSET 0.000000 0.000000 0.000000
					}
				}
			}
		}
	}
	JOINT LeftHip
	{
		OFFSET 7.797300 0.005300 0.000500
		CHANNELS 3 Xrotation Yrotation Zrotation
		JOINT LeftKnee
		{
			OFFSET 0.000000 -40.663399 -0.000500
			CHANNELS 3 Xrotation Yrotation Zrotation
			JOINT LeftAnkle
			{
				OFFSET 0.000000 -39.523701 -0.000900
				CHANNELS 3 Xrotation Yrotation Zrotation
				JOINT LeftToe
				{
					OFFSET 0.000000 -6.418000 14.485300
					CHANNELS 3 Xrotation Yrotation Zrotation
					End Site
					{
						OFFSET 0.000000 0.000000 0.000000
					}
				}
			}
		}
	}
}
MOTION
Frames: 12
Frame Time: 0.032
0.0 0.0 0.0 -142.184690 -0.704471 177.508270 23.223504 4.822048 1.806708 5.003389 4.931133 1.709527 3.339453 0.197720 0.760859 18.586697 2.234013 2.268806 13.746539 -0.195531 -4.994708 -3.022857 -1.213372 2.231708 -2.498115 -11.716342 -7.098576 -21.190454 9.433135 -16.259492 -102.579633 27.657321 31.035096 13.655799 20.898828 -8.140580 5.552167 -4.206762 3.143072 -21.570707 4.084673 24.531249 -81.292092 17.397812 -19.605845 -8.758123 12.060404 -6.408017 -37.349810 -4.658533 -0.354118 73.420873 0.381870 -0.217451 -2.799481 9.570583 6.242384 -2.627274 -0.033428 0.383280 -33.743757 1.408687 3.255595 80.247715 5.678647 -5.567347 -4.126446 -3.738327 -0.983932 0.074483 -0.132927 -0.343701
0.0 0.0 0.0 -142.275928 -0.653541 177.470171 23.168278 4.774705 1.854713 4.975375 4.892124 1.665576 3.319694 0.200929 0.737708 18.510566 2.212733 2.265676 13.793006 -0.196436 -5.008560 -3.028465 -1.181734 2.237395 -2.454803 -11.533335 -7.006639 -21.114437 9.465067 -16.136780 -102.407984 27.273504 30.879890 13.344389 20.893875 -8.286786 5.459247 -4.257046 3.080586 -21.526198 3.974428 24.319630 -81.268733 17.124840 -19.459530 -8.628505 11.884699 -6.392287 -37.485010 -4.606193 -0.342979 73.569477 0.336320 -0.192415 -2.937122 9.465903 6.230407 -2.625104 -0.025666 0.398455 -33.912593 1.374401 3.253007 80.311598 5.669200 -5.529849 -4.133774 -3.751952 -0.995490 0.050403 -0.124867 -0.347114
0.0 0.0 0.0 -142.311281 -0.599610 177.460076 23.158523 4.783203 1.858901 4.964505 4.889634 1.687511 3.338160 0.240858 0.766956 18.473855 2.235054 2.287729 13.836405 -0.162191 -5.024894 -3.016417 -1.121415 2.209588 -2.378041 -11.372355 -6.946856 -21.030731 9.499545 -16.066079 -102.339204 26.984238 30.768534 13.120179 20.840306 -8.312847 5.418505 -4.253761 3.089663 -21.517936 3.938536 24.239547 -81.255591 16.967904 -19.334727 -8.522013 11.820008 -6.358265 -37.563291 -4.550763 -0.332907 73.671636 0.346643 -0.189226 -3.023716 9.410530 6.219396 -2.610234 0.009152 0.402198 -34.025591 1.360424 3.277317 80.362462 5.698894 -5.510161 -4.125123 -3.719093 -0.969667 0.048309 -0.088661 -0.332705
0.0 0.0 0.0 -142.368654 -0.554641 177.426690 23.137290 4.763149 1.907083 4.967099 4.846607 1.654968 3.336740 0.243017 0.750609 18.434360 2.211152 2.285709 13.850376 -0.165164 -5.025505 -3.014126 -1.091995 2.246570 -2.316524 -11.275600 -6.876066 -20.991055 9.503413 -15.989111 -102.223862 26.745445 30.567712 12.943361 20.684878 -8.406920 5.368166 -4.283954 3.036347 -21.477045 3.907770 24.146119 -81.222212 16.778571 -19.208205 -8.442419 11.747327 -6.311113 -37.643017 -4.542793 -0.322191 73.773092 0.342729 -0.177799 -3.094436 9.326414 6.216887 -2.602268 0.009814 0.428483 -34.119011 1.313241 3.257374 80.415082 5.701610 -5.479329 -4.122608 -3.715505 -0.978853 0.041052 -0.088281 -0.328135
0.0 0.0 0.0 -142.425659 -0.513464 177.443752 23.047732 4.697422 1.820419 4.908218 4.815329 1.702492 3.294783 0.264683 0.812000 18.349737 2.208221 2.336426 13.832784 -0.155578 -5.091551 -3.072403 -1.066230 2.118010 -2.283286 -11.137638 -6.866165 -20.995238 9.547839 -16.004282 -102.244865 26.467441 30.554476 12.624710 20.496626 -8.390913 5.273998 -4.295693 3.108033 -21.483561 3.842097 24.107576 -81.240012 16.679768 -19.111002 -8.434715 11.694343 -6.327588 -37.762668 -4.483011 -0.335817 73.800372 0.241363 -0.205304 -3.226985 9.254777 6.144868 -2.659093 0.009963 0.354068 -34.283899 1.289323 3.312656 80.392549 5.643330 -5.492586 -4.189023 -3.715368 -0.933011 -0.031030 -0.090708 -0.344369
0.0 0.0 0.0 -142.520162 -0.467772 177.393659 22.996871 4.634976 1.858455 4.873733 4.701387 1.665604 3.275505 0.226846 0.803797 18.266214 2.135412 2.327529 13.851239 -0.187405 -5.090330 -3.085899 -1.069491 2.115577 -2.232908 -11.022604 -6.760069 -20.935180 9.516019 -15.911436 -102.188175 26.067161 30.366908 12.254094 20.374529 -8.456024 5.172883 -4.386335 3.076592 -21.467153 3.736356 23.976507 -81.299735 16.406891 -18.882164 -8.349706 11.563840 -6.234761 -37.892257 -4.493207 -0.308171 73.931962 0.182510 -0.168508 -3.379230 9.090434 6.146595 -2.666127 -0.017744 0.393421 -34.464363 1.198669 3.306211 80.448966 5.602070 -5.436514 -4.204075 -3.745905 -0.929571 -0.060916 -0.118161 -0.324654
0.0 0.0 0.0 -142.621972 -0.381303 177.344141 22.901857 4.534238 1.838693 4.803650 4.552223 1.615582 3.251188 0.192111 0.781530 18.158772 2.054459 2.315850 13.910378 -0.223497 -5.164831 -3.101471 -1.057360 2.034021 -2.199602 -10.857393 -6.684200 -20.854758 9.460288 -15.874309 -102.173462 25.451964 30.104298 11.698449 20.161252 -8.566584 5.021080 -4.478164 3.044232 -21.453303 3.613734 23.831751 -81.363542 16.051322 -18.602203 -8.198912 11.393417 -6.166283 -38.067735 -4.468076 -0.326290 74.122599 0.072935 -0.169953 -3.581018 8.892520 6.088796 -2.664563 -0.039999 0.372120 -34.728869 1.095439 3.294210 80.508027 5.515292 -5.401982 -4.215349 -3.766196 -0.929996 -0.094296 -0.140666 -0.339497
0.0 0.0 0.0 -142.762838 -0.314237 177.305973 22.788136 4.469265 1.819490 4.708217 4.482967 1.634740 3.207756 0.222061 0.813926 18.029082 2.043340 2.343360 13.951743 -0.191736 -5.204846 -3.170372 -1.006344 1.946632 -2.163030 -10.602209 -6.583275 -20.806583 9.457346 -15.825586 -102.176994 24.914894 29.913507 11.151544 19.988871 -8.655857 4.860173 -4.506656 3.059490 -21.463192 3.553213 23.709453 -81.423156 15.799582 -18.274091 -8.097608 11.264783 -6.119231 -38.259496 -4.379271 -0.303705 74.276770 -0.018729 -0.149598 -3.810401 8.757597 6.057149 -2.723353 -0.025518 0.347106 -35.004918 1.058381 3.329476 80.550128 5.490705 -5.344594 -4.285498 -3.749951 -0.916871 -0.183095 -0.126657 -0.348647
0.0 0.0 0.0 -142.795432 -0.253450 177.290647 22.770823 4.434220 1.819437 4.726762 4.419750 1.628207 3.250218 0.233799 0.818359 18.007278 2.028790 2.343867 14.036816 -0.187562 -5.238370 -3.141384 -0.950334 1.913664 -2.056201 -10.413469 -6.533142 -20.706523 9.411500 -15.755488 -102.022153 24.456761 29.652853 10.901712 19.653197 -8.787940 4.818558 -4.535248 3.011697 -21.359767 3.530847 23.530089 -81.385870 15.577942 -18.159608 -7.952140 11.146094 -6.035284 -38.351403 -4.340146 -0.328401 74.458932 -0.047569 -0.175065 -3.885003 8.629009 5.999309 -2.672107 -0.013688 0.331787 -35.142327 0.988958 3.311962 80.645785 5.489442 -5.334248 -4.263278 -3.731645 -0.908640 -0.158739 -0.115096 -0.357182
0.0 0.0 0.0 -142.826072 -0.203221 177.277833 22.752132 4.399271 1.820935 4.714635 4.350937 1.621978 3.253889 0.217584 0.830759 17.966591 1.989140 2.352570 14.062989 -0.208224 -5.265976 -3.129753 -0.933994 1.887782 -2.004078 -10.325153 -6.507695 -20.645954 9.380908 -15.711780 -102.016026 24.170467 29.499642 10.675061 19.482671 -8.844347 4.780703 -4.580108 3.006414 -21.343907 3.477075 23.451082 -81.411559 15.420253 -18.039003 -7.871668 11.077839 -5.983924 -38.429363 -4.342757 -0.338476 74.561036 -0.077142 -0.175470 -3.972003 8.520613 5.961153 -2.655613 -0.020471 0.332831 -35.260322 0.923452 3.305086 80.685127 5.455475 -5.321465 -4.253210 -3.733867 -0.884286 -0.156894 -0.121629 -0.347766
0.0 0.0 0.0 -142.865428 -0.153897 177.253012 22.748129 4.391010 1.839043 4.748775 4.313944 1.631122 3.264428 0.243322 0.848170 17.945164 1.989613 2.370158 14.102741 -0.179004 -5.268026 -3.123012 -0.872945 1.898130 -1.890777 -10.189132 -6.433673 -20.591588 9.384194 -15.642405 -101.928791 23.898926 29.320517 10.511988 19.131568 -8.964398 4.732537 -4.585261 2.984156 -21.260145 3.480497 23.347424 -81.377736 15.281633 -17.921351 -7.789143 11.032875 -5.927234 -38.499119 -4.322583 -0.328719 74.670142 -0.072766 -0.187200 -4.029948 8.442408 5.938980 -2.639215 -0.001542 0.343263 -35.349610 0.874414 3.302251 80.750868 5.481329 -5.308415 -4.252766 -3.706362 -0.870554 -0.153614 -0.104926 -0.338824
0.0 0.0 0.0 -142.957772 -0.103318 177.214818 22.655391 4.345827 1.859974 4.676321 4.235367 1.557513 3.227361 0.228150 0.801923 17.854569 1.942089 2.337168 14.116661 -0.196836 -5.304170 -3.146859 -0.841181 1.893694 -1.893615 -10.074374 -6.419893 -20.535071 9.331146 -15.576205 -101.909598 23.575667 29.108251 10.159384 18.954402 -9.116307 4.641961 -4.625022 2.900230 -21.306218 3.456620 23.183235 -81.413314 15.128669 -17.726670 -7.713056 10.956229 -5.884521 -38.630385 -4.284079 -0.346591 74.802811 -0.119513 -0.169754 -4.167676 8.322271 5.898144 -2.658840 -0.000374 0.344506 -35.518445 0.833156 3.252539 80.786822 5.430036 -5.263282 -4.277675 -3.694092 -0.902505 -0.191575 -0.103308 -0.361076
